<svg xmlns="http://www.w3.org/2000/svg" xmlns:xlink="http://www.w3.org/1999/xlink" width="150" zoomAndPan="magnify" viewBox="0 0 112.5 112.499997" height="150" preserveAspectRatio="xMidYMid meet" version="1.0"><defs><g/><clipPath id="eef2723048"><path d="M 27.027344 24.78125 L 88.722656 24.78125 L 88.722656 84.96875 L 27.027344 84.96875 Z M 27.027344 24.78125 " clip-rule="nonzero"/></clipPath><clipPath id="24f1e99622"><path d="M 27.027344 26 L 94.527344 26 L 94.527344 79 L 27.027344 79 Z M 27.027344 26 " clip-rule="nonzero"/></clipPath><clipPath id="e2626258cf"><path d="M 37 22.738281 L 71 22.738281 L 71 34 L 37 34 Z M 37 22.738281 " clip-rule="nonzero"/></clipPath></defs><g clip-path="url(#eef2723048)"><path fill="#fbc00d" d="M 88.597656 84.96875 L 31.386719 84.96875 C 25.65625 69.527344 27.222656 26.953125 27.222656 26.953125 L 36.59375 31.023438 C 37.148438 29.476562 38.152344 27.261719 38.851562 26.253906 L 59.9375 24.867188 L 69.667969 26.953125 L 72.664062 29.890625 L 71.511719 35.40625 L 48.667969 36.273438 L 84.414062 51.800781 C 84.785156 63.980469 85.855469 77.582031 88.597656 84.96875 " fill-opacity="1" fill-rule="nonzero"/></g><g clip-path="url(#24f1e99622)"><path fill="#faf6e6" d="M 94.527344 78.753906 L 37.316406 78.753906 C 27.828125 66.054688 27.222656 26.953125 27.222656 26.953125 L 38.519531 26.953125 C 38.714844 29.203125 39.007812 32.609375 39.101562 33.699219 L 70.414062 31.007812 L 70.175781 28.996094 L 69.667969 26.953125 L 84.433594 26.953125 C 84.433594 26.953125 85.039062 66.054688 94.527344 78.753906 " fill-opacity="1" fill-rule="nonzero"/></g><g clip-path="url(#e2626258cf)"><path fill="#f3e8d0" d="M 70.738281 30.972656 L 69.789062 31.050781 C 69.792969 30.675781 69.6875 30.007812 69.710938 29.535156 C 69.742188 28.984375 69.566406 28.765625 69.515625 28.613281 C 69.464844 28.460938 69.371094 27.84375 69.503906 27.558594 C 69.5625 27.433594 69.46875 27.199219 69.355469 26.953125 L 38.953125 26.953125 C 38.875 27.152344 38.929688 27.324219 38.929688 27.691406 C 38.933594 28.160156 38.867188 28.285156 38.808594 28.523438 C 38.75 28.761719 39 31.671875 39.054688 32.292969 C 39.101562 32.828125 39.164062 33.269531 39.183594 33.683594 L 38.867188 33.710938 C 38.898438 33.394531 38.882812 33.050781 38.882812 33.050781 C 38.882812 33.050781 38.613281 32.640625 38.40625 32.035156 C 38.195312 31.429688 38.347656 31.335938 38.472656 31.011719 C 38.601562 30.691406 38.179688 30.335938 38.339844 29.890625 C 38.496094 29.449219 38.265625 29.039062 38.257812 28.492188 C 38.25 27.945312 38.011719 27.925781 37.984375 27.617188 C 37.957031 27.308594 38.144531 26.742188 38.195312 26.425781 C 38.226562 26.230469 38.183594 25.84375 38.152344 25.449219 L 39.085938 25.367188 C 39.085938 25.371094 39.089844 25.371094 39.089844 25.375 L 68.574219 22.839844 L 68.574219 22.832031 L 69.386719 22.761719 C 69.363281 23.097656 69.359375 23.425781 69.359375 23.625 C 69.359375 24.09375 69.175781 24.65625 69.277344 24.960938 C 69.382812 25.265625 69.628906 26.296875 69.621094 26.652344 C 69.613281 27.003906 70.03125 27.789062 70.292969 28.117188 C 70.558594 28.445312 70.601562 29.417969 70.640625 29.882812 C 70.667969 30.160156 70.730469 30.597656 70.738281 30.972656 " fill-opacity="1" fill-rule="nonzero"/></g><g fill="#ffc8a6" fill-opacity="1"><g transform="translate(30.970125, 56.515589)"><g><path d="M 1.671875 -1.375 C 4.628906 1.566406 10.265625 -0.453125 8.996094 -4.976562 C 8.59375 -6.386719 5.792969 -7.414062 5.027344 -5.863281 C 4.785156 -5.375 4.800781 -4.472656 5.183594 -4.070312 C 5.515625 -3.707031 6.4375 -3.863281 6.019531 -3.183594 C 5.691406 -2.664062 4.699219 -2.835938 4.261719 -3.046875 C 3.445312 -3.460938 3.097656 -4.402344 3.132812 -5.289062 C 3.21875 -7.03125 4.558594 -8.351562 6.140625 -8.820312 C 7.359375 -9.1875 7.515625 -10.507812 6.542969 -11.464844 C 5.117188 -12.839844 2.628906 -10.492188 1.792969 -9.394531 C 0.0703125 -7.167969 -0.488281 -3.53125 1.671875 -1.375 Z M 1.671875 -1.375 "/></g></g></g><path stroke-linecap="butt" transform="matrix(0.75, 0, 0, 0.75, 31.638298, 41.641826)" fill="none" stroke-linejoin="miter" d="M 2.523936 17.165067 C 6.471853 21.092151 13.987479 18.399442 12.29477 12.368192 C 11.753103 10.487983 8.023936 9.118192 7.003103 11.1859 C 6.674978 11.831733 6.695811 13.034859 7.211436 13.571317 C 7.648936 14.0609 8.883311 13.852567 8.320811 14.753609 C 7.883311 15.446317 6.560395 15.21715 5.98227 14.941109 C 4.888519 14.383817 4.424978 13.133817 4.471853 11.946317 C 4.591644 9.6234 6.372895 7.862983 8.487478 7.237983 C 10.112478 6.7484 10.315603 4.987983 9.018728 3.711941 C 7.117686 1.878608 3.794769 5.008816 2.685394 6.472358 C 0.388519 9.441108 -0.356273 14.295275 2.523936 17.165067 Z M 2.523936 17.165067 " stroke="#ff914d" stroke-width="0.87" stroke-opacity="1" stroke-miterlimit="4"/><g fill="#ffc8a6" fill-opacity="1"><g transform="translate(39.700386, 56.515589)"><g><path d="M 0.972656 -0.609375 C 1.671875 0.574219 2.523438 -0.140625 2.695312 -1.199219 C 2.820312 -1.929688 2.820312 -2.695312 2.957031 -3.445312 C 3.078125 -4.105469 3.359375 -4.734375 3.707031 -5.324219 C 4.195312 -6.140625 4.855469 -6.890625 5.777344 -6.210938 C 6.160156 -5.933594 6.386719 -5.5 6.925781 -5.515625 C 7.5 -5.550781 7.742188 -6.074219 7.691406 -6.613281 C 7.570312 -7.605469 6.734375 -8.753906 5.742188 -8.996094 C 4.578125 -9.273438 3.6875 -8.351562 3.132812 -7.429688 C 3.011719 -8.109375 2.539062 -9.640625 1.546875 -9.222656 C 0.957031 -8.976562 0.765625 -7.953125 0.660156 -7.414062 C 0.261719 -5.375 -0.105469 -2.472656 0.972656 -0.609375 Z M 0.972656 -0.609375 "/></g></g></g><path stroke-linecap="butt" transform="matrix(0.75, -0.000000000000000012, 0.000000000000000012, 0.75, 40.591211, 41.641826)" fill="none" stroke-linejoin="miter" d="M 1.295052 18.191109 C 2.227344 19.764026 3.362761 18.810901 3.597136 17.399442 C 3.758594 16.420276 3.758594 15.40465 3.940886 14.40465 C 4.107552 13.524442 4.482553 12.691109 4.940886 11.90465 C 5.591928 10.8109 6.472136 9.8109 7.701303 10.71715 C 8.21172 11.086942 8.513803 11.670275 9.232553 11.649442 C 9.998178 11.597358 10.326303 10.899442 10.253386 10.1859 C 10.091928 8.862983 8.977345 7.331733 7.659636 7.003608 C 6.102344 6.633816 4.914844 7.862983 4.175261 9.09215 C 4.013802 8.1859 3.388802 6.149441 2.065886 6.701525 C 1.274219 7.024441 1.019011 8.399441 0.883594 9.118192 C 0.347135 11.831733 -0.142448 15.701526 1.295052 18.191109 Z M 1.295052 18.191109 " stroke="#ff914d" stroke-width="0.87" stroke-opacity="1" stroke-miterlimit="4"/><g fill="#ffc8a6" fill-opacity="1"><g transform="translate(47.172919, 56.515589)"><g><path d="M 4.90625 -0.625 C 6.578125 -1.929688 6.75 -4.628906 6.003906 -6.472656 C 5.898438 -8.628906 3.097656 -8.734375 1.773438 -7.636719 C 0.261719 -6.367188 -0.0351562 -4.019531 0.503906 -2.210938 C 1.113281 -0.242188 3.167969 0.714844 4.90625 -0.625 Z M 4.246094 -2.976562 C 3.585938 -2.820312 3.6875 -3.566406 4.140625 -4.472656 C 4.246094 -4.699219 4.453125 -4.941406 4.664062 -5.117188 C 4.699219 -4.820312 4.769531 -3.097656 4.246094 -2.976562 Z M 4.246094 -2.976562 "/></g></g></g><path stroke-linecap="butt" transform="matrix(0.75, -0.000000000000000012, 0.000000000000000012, 0.75, 48.063754, 41.641826)" fill="none" stroke-linejoin="miter" d="M 6.539995 18.165067 C 8.769162 16.420276 8.998328 12.826525 8.003537 10.368192 C 7.86812 7.493191 4.128536 7.352566 2.368119 8.816108 C 0.347286 10.508817 -0.0433391 13.644234 0.675411 16.055692 C 1.482703 18.675484 4.222286 19.951526 6.539995 18.165067 Z M 5.659786 15.034859 C 4.779578 15.237984 4.914995 14.243192 5.52437 13.034859 C 5.659786 12.737984 5.941036 12.415067 6.217078 12.180692 C 6.263953 12.571317 6.352495 14.8734 5.659786 15.034859 Z M 5.659786 15.034859 " stroke="#ff914d" stroke-width="0.87" stroke-opacity="1" stroke-miterlimit="4"/><g fill="#ffc8a6" fill-opacity="1"><g transform="translate(54.067393, 56.515589)"><g><path d="M 6.613281 1.757812 C 7.082031 1.007812 7.03125 0.0351562 7.046875 -0.835938 C 7.082031 -1.914062 7.203125 -2.992188 7.132812 -4.089844 C 7.046875 -5.011719 6.351562 -6.664062 5.167969 -5.898438 C 4.28125 -5.324219 4.226562 -4.070312 3.53125 -3.359375 C 2.488281 -2.28125 2.539062 -4.296875 2.59375 -4.941406 C 2.664062 -5.742188 3.445312 -7.515625 2.679688 -8.125 C 1.601562 -8.976562 0.679688 -7.222656 0.453125 -6.402344 C 0.191406 -5.34375 0.226562 -4.175781 0.332031 -3.097656 C 0.558594 -0.957031 2.382812 1.148438 4.402344 -0.816406 C 4.453125 0.105469 5.238281 3.933594 6.613281 1.757812 Z M 6.613281 1.757812 "/></g></g></g><path stroke-linecap="butt" transform="matrix(0.75, 0, 0, 0.75, 55.005091, 41.641826)" fill="none" stroke-linejoin="miter" d="M 8.748422 21.347359 C 9.37863 20.347359 9.310922 19.045276 9.331755 17.883817 C 9.37863 16.446317 9.545297 15.008817 9.446338 13.545275 C 9.331755 12.316109 8.404672 10.112983 6.831755 11.133817 C 5.649463 11.90465 5.571338 13.571317 4.644255 14.519234 C 3.258838 15.956734 3.326546 13.269234 3.394254 12.415067 C 3.488004 11.34215 4.529671 8.982775 3.514046 8.165066 C 2.071338 7.024441 0.842171 9.3734 0.540088 10.461942 C 0.191129 11.878608 0.238004 13.430692 0.378629 14.8734 C 0.680713 17.727567 3.113004 20.529651 5.805713 17.904651 C 5.87863 19.139026 6.920296 24.243193 8.748422 21.347359 Z M 8.748422 21.347359 " stroke="#ff914d" stroke-width="0.87" stroke-opacity="1" stroke-miterlimit="4"/><g fill="#ffc8a6" fill-opacity="1"><g transform="translate(61.141642, 56.515589)"><g><path d="M 0.835938 4.386719 C 1.410156 5.757812 2.4375 4.976562 2.664062 3.898438 C 2.835938 3.097656 2.855469 2.261719 2.871094 1.445312 C 2.886719 0.957031 2.800781 0.382812 2.90625 -0.105469 C 3.027344 -0.679688 2.992188 -0.503906 3.550781 -0.714844 C 5.046875 -1.269531 6.421875 -2.4375 6.925781 -3.984375 C 7.777344 -6.679688 4.992188 -7.898438 2.785156 -7.117188 C 2.628906 -7.621094 2.035156 -8.160156 1.460938 -7.898438 C 0.851562 -7.636719 0.660156 -6.507812 0.558594 -5.933594 C 0.261719 -4.140625 0.226562 -2.261719 0.296875 -0.46875 C 0.3125 0.503906 0.398438 1.460938 0.503906 2.417969 C 0.589844 3.046875 0.574219 3.792969 0.835938 4.386719 Z M 2.976562 -3.269531 L 2.976562 -3.429688 C 2.992188 -4.035156 2.855469 -4.925781 3.269531 -5.324219 C 3.53125 -5.566406 4.160156 -5.8125 4.316406 -5.394531 C 4.542969 -4.820312 3.269531 -3.566406 2.976562 -3.269531 Z M 2.976562 -3.269531 "/></g></g></g><path stroke-linecap="butt" transform="matrix(0.75, 0, 0, 0.75, 62.114498, 41.641826)" fill="none" stroke-linejoin="miter" d="M 1.008794 24.84736 C 1.769211 26.680693 3.133794 25.633818 3.441086 24.201526 C 3.675461 23.12861 3.696294 22.014026 3.717127 20.925484 C 3.743169 20.274443 3.623377 19.508818 3.764002 18.857776 C 3.930669 18.092151 3.883794 18.326526 4.623378 18.050484 C 6.618169 17.305692 8.451503 15.753609 9.123378 13.6859 C 10.264003 10.09215 6.550461 8.46715 3.602544 9.514025 C 3.389002 8.836942 2.602544 8.118191 1.836919 8.46715 C 1.029627 8.816108 0.774419 10.321317 0.633794 11.086942 C 0.23796 13.477567 0.191085 15.987984 0.284835 18.373401 C 0.310877 19.675484 0.42546 20.946318 0.566086 22.222359 C 0.675461 23.060901 0.654627 24.055693 1.008794 24.84736 Z M 3.857752 14.639025 L 3.857752 14.430692 C 3.883794 13.618192 3.696294 12.4359 4.253586 11.90465 C 4.597336 11.576525 5.435878 11.253608 5.644211 11.805692 C 5.946294 12.571317 4.253586 14.243192 3.857752 14.639025 Z M 3.857752 14.639025 " stroke="#ff914d" stroke-width="0.87" stroke-opacity="1" stroke-miterlimit="4"/><g fill="#ffc8a6" fill-opacity="1"><g transform="translate(68.425258, 56.515589)"><g><path d="M 0.433594 -8.265625 C 1.097656 -7.0625 2.558594 -8.230469 1.792969 -9.34375 C 1.027344 -10.476562 -0.105469 -9.273438 0.433594 -8.265625 Z M 1.707031 -0.191406 C 2.175781 -0.523438 2.15625 -1.445312 2.246094 -1.929688 C 2.382812 -2.886719 2.472656 -3.8125 2.367188 -4.769531 C 2.296875 -5.480469 2.121094 -8.265625 0.765625 -6.960938 C 0.277344 -6.507812 0.382812 -5.550781 0.347656 -4.925781 C 0.296875 -4.140625 0.242188 -3.324219 0.277344 -2.539062 C 0.3125 -1.949219 0.367188 0.730469 1.707031 -0.191406 Z M 1.707031 -0.191406 "/></g></g></g><path stroke-linecap="butt" transform="matrix(0.75, 0, 0, 0.75, 69.480146, 41.641826)" fill="none" stroke-linejoin="miter" d="M 0.359806 7.977566 C 1.240014 9.581733 3.193139 8.02965 2.172306 6.540066 C 1.151473 5.034858 -0.358944 6.633816 0.359806 7.977566 Z M 2.052514 18.743192 C 2.682723 18.305692 2.656681 17.076526 2.771264 16.420276 C 2.958764 15.149442 3.078556 13.920275 2.937931 12.644234 C 2.844181 11.691108 2.615014 7.977566 0.802514 9.722358 C 0.156681 10.321317 0.292097 11.597358 0.245222 12.4359 C 0.177514 13.477567 0.104597 14.571317 0.156681 15.612984 C 0.198347 16.399442 0.266056 19.972359 2.052514 18.743192 Z M 2.052514 18.743192 " stroke="#ff914d" stroke-width="0.87" stroke-opacity="1" stroke-miterlimit="4"/><g fill="#ffc8a6" fill-opacity="1"><g transform="translate(75.849068, 56.515589)"><g><path d="M 2.539062 0.835938 C 3.757812 0.382812 4.890625 -0.574219 5.289062 -1.84375 C 5.480469 -2.4375 5.480469 -3.078125 5.152344 -3.636719 C 4.835938 -4.160156 3.914062 -4.523438 3.96875 -5.238281 C 4.070312 -6.628906 7.414062 -6.507812 6.75 -8.246094 C 6.367188 -9.292969 4.890625 -9.011719 4.089844 -8.769531 C 2.976562 -8.421875 1.898438 -7.796875 1.617188 -6.578125 C 1.425781 -5.8125 1.671875 -5.097656 2.191406 -4.542969 C 2.644531 -4.070312 3.238281 -3.757812 2.941406 -2.992188 C 2.523438 -1.898438 1.007812 -1.792969 0.3125 -0.921875 C -0.121094 -0.367188 -0.105469 0.207031 0.453125 0.714844 C 1.007812 1.234375 1.878906 1.078125 2.539062 0.835938 Z M 2.539062 0.835938 "/></g></g></g><path stroke-linecap="butt" transform="matrix(0.75, 0.000000000000000012, -0.000000000000000012, 0.75, 76.739893, 41.641826)" fill="none" stroke-linejoin="miter" d="M 3.388476 20.118193 C 5.013476 19.508818 6.518685 18.232776 7.049935 16.540067 C 7.305143 15.753609 7.305143 14.894234 6.862435 14.149442 C 6.450976 13.456734 5.22181 12.96715 5.289518 12.014025 C 5.424935 10.159858 9.883268 10.321317 8.997852 7.9984 C 8.492643 6.612983 6.518685 6.982775 5.456185 7.3109 C 3.966601 7.774441 2.523893 8.607775 2.159309 10.232775 C 1.904101 11.253608 2.227018 12.201525 2.924934 12.946317 C 3.529101 13.571317 4.315559 13.987984 3.919726 15.008817 C 3.362434 16.472359 1.346809 16.607776 0.419726 17.769234 C -0.163608 18.514026 -0.142774 19.279651 0.602017 19.951526 C 1.346809 20.649443 2.503059 20.441109 3.388476 20.118193 Z M 3.388476 20.118193 " stroke="#ff914d" stroke-width="0.87" stroke-opacity="1" stroke-miterlimit="4"/><g fill="#ffc8a6" fill-opacity="1"><g transform="translate(70.911827, 56.515589)"><g><path d="M 2.332031 -0.78125 C 3.324219 -0.609375 4.472656 -0.90625 5.203125 -1.636719 C 5.8125 -2.246094 6.105469 -4.386719 4.644531 -3.757812 C 4.28125 -3.601562 2.402344 -1.6875 2.488281 -3.253906 C 2.539062 -4.160156 3.339844 -3.96875 3.96875 -4.089844 C 4.59375 -4.210938 5.308594 -4.402344 5.742188 -4.890625 C 6.679688 -5.949219 5.742188 -7.429688 4.578125 -7.777344 C 3.460938 -8.109375 2.175781 -7.636719 1.410156 -6.820312 C -0.121094 -5.203125 -0.417969 -1.269531 2.332031 -0.78125 Z M 3.480469 -5.183594 C 3.671875 -5.601562 4.070312 -5.792969 4.507812 -5.722656 C 4.664062 -5.359375 3.828125 -5.0625 3.480469 -5.183594 Z M 3.480469 -5.183594 "/></g></g></g><path stroke-linecap="butt" transform="matrix(0.75, 0, 0, 0.75, 71.615153, 41.641826)" fill="none" stroke-linejoin="miter" d="M 3.362088 17.956734 C 4.679797 18.191109 6.216255 17.795276 7.190214 16.821317 C 7.997506 16.008817 8.393339 13.15465 6.445422 13.987984 C 5.961047 14.196317 3.45063 16.753609 3.570422 14.659859 C 3.63813 13.456734 4.70063 13.711942 5.539172 13.545275 C 6.372505 13.389025 7.325631 13.133817 7.908964 12.482775 C 9.158964 11.066108 7.908964 9.09215 6.351672 8.628608 C 4.867297 8.1859 3.148547 8.816108 2.132922 9.90465 C 0.0860465 12.0609 -0.304579 17.305692 3.362088 17.956734 Z M 4.88813 12.081733 C 5.143339 11.52965 5.674589 11.274442 6.257922 11.362983 C 6.471464 11.852567 5.351672 12.2484 4.88813 12.081733 Z M 4.88813 12.081733 " stroke="#ff914d" stroke-width="0.87" stroke-opacity="1" stroke-miterlimit="4"/><g fill="#ffc8a6" fill-opacity="1"><g transform="translate(82.151548, 56.515589)"><g><path d="M 0.347656 -0.503906 C 0.90625 0.835938 2.992188 -0.835938 2.089844 -1.6875 C 1.390625 -2.730469 -0.0859375 -1.53125 0.347656 -0.503906 Z M 0.347656 -0.503906 "/></g></g></g><path stroke-linecap="butt" transform="matrix(0.75, 0, 0, 0.75, 83.253311, 41.641826)" fill="none" stroke-linejoin="miter" d="M 0.183086 18.326526 C 0.922669 20.118193 3.714336 17.883817 2.506003 16.753609 C 1.578919 15.357775 -0.395039 16.961942 0.183086 18.326526 Z M 0.183086 18.326526 " stroke="#ff914d" stroke-width="0.87" stroke-opacity="1" stroke-miterlimit="4"/></svg>